<svg width="119" height="24" viewBox="0 0 119 24" fill="none" xmlns="http://www.w3.org/2000/svg">
<path d="M44.2393 9.67401C44.1882 9.15838 43.9688 8.75781 43.581 8.4723C43.1932 8.18679 42.6669 8.04403 42.0021 8.04403C41.5504 8.04403 41.169 8.10795 40.858 8.2358C40.5469 8.35938 40.3082 8.53196 40.142 8.75355C39.9801 8.97514 39.8991 9.22656 39.8991 9.50781C39.8906 9.74219 39.9396 9.94673 40.0462 10.1214C40.157 10.2962 40.3082 10.4474 40.5 10.5753C40.6918 10.6989 40.9134 10.8075 41.1648 10.9013C41.4162 10.9908 41.6847 11.0675 41.9702 11.1314L43.1463 11.4126C43.7173 11.5405 44.2415 11.7109 44.7188 11.924C45.196 12.1371 45.6094 12.3991 45.9588 12.7102C46.3082 13.0213 46.5788 13.3878 46.7706 13.8097C46.9666 14.2315 47.0668 14.7152 47.071 15.2607C47.0668 16.0618 46.8622 16.7564 46.4574 17.3445C46.0568 17.9283 45.4773 18.3821 44.7188 18.706C43.9645 19.0256 43.0547 19.1854 41.9893 19.1854C40.9325 19.1854 40.0121 19.0234 39.228 18.6996C38.4482 18.3757 37.8388 17.8963 37.3999 17.2614C36.9652 16.6222 36.7372 15.8317 36.7159 14.8899H39.3942C39.424 15.3288 39.5497 15.6953 39.7713 15.9893C39.9972 16.2791 40.2976 16.4986 40.6726 16.6477C41.0518 16.7926 41.4801 16.8651 41.9574 16.8651C42.4261 16.8651 42.8331 16.7969 43.1783 16.6605C43.5277 16.5241 43.7983 16.3345 43.9901 16.0916C44.1818 15.8487 44.2777 15.5696 44.2777 15.2543C44.2777 14.9602 44.1903 14.7131 44.0156 14.5128C43.8452 14.3125 43.5938 14.142 43.2614 14.0014C42.9332 13.8608 42.5305 13.733 42.0533 13.6179L40.6278 13.2599C39.5241 12.9915 38.6527 12.5717 38.0135 12.0007C37.3743 11.4297 37.0568 10.6605 37.0611 9.69318C37.0568 8.90057 37.2678 8.2081 37.6939 7.61577C38.1243 7.02344 38.7145 6.56108 39.4645 6.22869C40.2145 5.89631 41.0668 5.73011 42.0213 5.73011C42.9929 5.73011 43.8409 5.89631 44.5653 6.22869C45.294 6.56108 45.8608 7.02344 46.2656 7.61577C46.6705 8.2081 46.8793 8.89418 46.892 9.67401H44.2393ZM50.5627 22.6818C50.2175 22.6818 49.8936 22.6541 49.5911 22.5987C49.2928 22.5476 49.0456 22.4815 48.8496 22.4006L49.4632 20.3679C49.7828 20.4659 50.0705 20.5192 50.3262 20.5277C50.5861 20.5362 50.8098 20.4766 50.9973 20.3487C51.1891 20.2209 51.3446 20.0036 51.464 19.6967L51.6238 19.2812L48.1017 9.18182H50.9654L52.998 16.392H53.1003L55.1522 9.18182H58.035L54.2189 20.0611C54.0357 20.5895 53.7864 21.0497 53.4711 21.4418C53.16 21.8381 52.7658 22.1428 52.2885 22.3558C51.8113 22.5732 51.236 22.6818 50.5627 22.6818ZM62.1515 13.3239V19H59.4284V9.18182H62.0236V10.9141H62.1387C62.356 10.343 62.7203 9.89133 63.2317 9.55895C63.7431 9.2223 64.3631 9.05398 65.0918 9.05398C65.7736 9.05398 66.3681 9.20312 66.8752 9.50142C67.3823 9.79972 67.7765 10.2259 68.0577 10.7798C68.339 11.3295 68.4796 11.9858 68.4796 12.7486V19H65.7566V13.2344C65.7608 12.6335 65.6074 12.1648 65.2963 11.8281C64.9853 11.4872 64.557 11.3168 64.0115 11.3168C63.6451 11.3168 63.3212 11.3956 63.04 11.5533C62.763 11.7109 62.5456 11.9411 62.388 12.2436C62.2346 12.5419 62.1557 12.902 62.1515 13.3239ZM75.0618 19.1918C74.0561 19.1918 73.1911 18.9787 72.4666 18.5526C71.7464 18.1222 71.1925 17.5256 70.8047 16.7628C70.4212 16 70.2294 15.1222 70.2294 14.1293C70.2294 13.1236 70.4233 12.2415 70.8111 11.483C71.2031 10.7202 71.7592 10.1257 72.4794 9.69957C73.1996 9.26918 74.0561 9.05398 75.049 9.05398C75.9055 9.05398 76.6555 9.20952 77.299 9.5206C77.9425 9.83168 78.4517 10.2685 78.8267 10.831C79.2017 11.3935 79.4084 12.054 79.4467 12.8125H76.8771C76.8047 12.3224 76.6129 11.9283 76.3018 11.63C75.995 11.3274 75.5923 11.1761 75.0938 11.1761C74.6719 11.1761 74.3033 11.2912 73.9879 11.5213C73.6768 11.7472 73.4339 12.0774 73.2592 12.5121C73.0845 12.9467 72.9972 13.473 72.9972 14.0909C72.9972 14.7173 73.0824 15.25 73.2528 15.6889C73.4276 16.1278 73.6726 16.4624 73.9879 16.6925C74.3033 16.9226 74.6719 17.0376 75.0938 17.0376C75.4048 17.0376 75.6839 16.9737 75.9311 16.8459C76.1825 16.718 76.3892 16.5327 76.5511 16.2898C76.7173 16.0426 76.826 15.7464 76.8771 15.4013H79.4467C79.4041 16.1513 79.1996 16.8118 78.8331 17.3828C78.4709 17.9496 77.9702 18.3928 77.331 18.7124C76.6918 19.032 75.9354 19.1918 75.0618 19.1918ZM92.7917 10.4922H89.992C89.9409 10.13 89.8365 9.80824 89.6788 9.52699C89.5211 9.24148 89.3187 8.99858 89.0716 8.7983C88.8244 8.59801 88.5389 8.4446 88.215 8.33807C87.8954 8.23153 87.5481 8.17827 87.1731 8.17827C86.4956 8.17827 85.9054 8.34659 85.4025 8.68324C84.8997 9.01562 84.5098 9.50142 84.2328 10.1406C83.9558 10.7756 83.8173 11.5469 83.8173 12.4545C83.8173 13.3878 83.9558 14.1719 84.2328 14.8068C84.514 15.4418 84.9061 15.9212 85.4089 16.245C85.9118 16.5689 86.4934 16.7308 87.1539 16.7308C87.5247 16.7308 87.8677 16.6818 88.1831 16.5838C88.5027 16.4858 88.786 16.343 89.0332 16.1555C89.2804 15.9638 89.4849 15.7315 89.6468 15.4588C89.813 15.1861 89.9281 14.875 89.992 14.5256L92.7917 14.5384C92.7193 15.1392 92.5382 15.7188 92.2484 16.277C91.9629 16.831 91.5772 17.3274 91.0914 17.7663C90.6099 18.201 90.0346 18.5462 89.3656 18.8018C88.7008 19.0533 87.9487 19.179 87.1092 19.179C85.9416 19.179 84.8975 18.9148 83.9771 18.3864C83.0609 17.858 82.3365 17.093 81.8038 16.0916C81.2754 15.0902 81.0112 13.8778 81.0112 12.4545C81.0112 11.027 81.2797 9.8125 81.8166 8.81108C82.3535 7.80966 83.0822 7.04687 84.0027 6.52273C84.9231 5.99432 85.9586 5.73011 87.1092 5.73011C87.8677 5.73011 88.5708 5.83665 89.2186 6.04972C89.8706 6.26278 90.448 6.57386 90.9508 6.98295C91.4537 7.38778 91.8627 7.88423 92.1781 8.4723C92.4977 9.06037 92.7022 9.73366 92.7917 10.4922ZM97.525 19.1854C96.8986 19.1854 96.3404 19.0767 95.8503 18.8594C95.3603 18.6378 94.9725 18.3118 94.687 17.8814C94.4057 17.4467 94.2651 16.9055 94.2651 16.2578C94.2651 15.7124 94.3652 15.2543 94.5655 14.8835C94.7658 14.5128 95.0385 14.2145 95.3837 13.9886C95.7289 13.7628 96.1209 13.5923 96.5598 13.4773C97.003 13.3622 97.4675 13.2812 97.9533 13.2344C98.5243 13.1747 98.9846 13.1193 99.334 13.0682C99.6834 13.0128 99.937 12.9318 100.095 12.8253C100.252 12.7187 100.331 12.5611 100.331 12.3523V12.3139C100.331 11.9091 100.203 11.5959 99.9476 11.3743C99.6962 11.1527 99.3382 11.0419 98.8738 11.0419C98.3837 11.0419 97.9938 11.1506 97.704 11.3679C97.4142 11.581 97.2225 11.8494 97.1287 12.1733L94.6103 11.9688C94.7381 11.3722 94.9895 10.8565 95.3645 10.4219C95.7395 9.98295 96.2232 9.64631 96.8155 9.41193C97.4121 9.1733 98.1025 9.05398 98.8865 9.05398C99.432 9.05398 99.954 9.1179 100.453 9.24574C100.955 9.37358 101.401 9.57173 101.789 9.8402C102.181 10.1087 102.49 10.4538 102.715 10.8757C102.941 11.2933 103.054 11.794 103.054 12.3778V19H100.472V17.6385H100.395C100.237 17.9453 100.026 18.2159 99.7623 18.4503C99.498 18.6804 99.1806 18.8615 98.8098 18.9936C98.4391 19.1214 98.0108 19.1854 97.525 19.1854ZM98.3049 17.3061C98.7054 17.3061 99.0591 17.2273 99.3659 17.0696C99.6728 16.9077 99.9135 16.6903 100.088 16.4176C100.263 16.1449 100.35 15.8359 100.35 15.4908V14.4489C100.265 14.5043 100.148 14.5554 99.9988 14.6023C99.8539 14.6449 99.6898 14.6854 99.5066 14.7237C99.3233 14.7578 99.1401 14.7898 98.9569 14.8196C98.7736 14.8452 98.6074 14.8686 98.4583 14.8899C98.1387 14.9368 97.8596 15.0114 97.6209 15.1136C97.3823 15.2159 97.1969 15.3544 97.0648 15.5291C96.9327 15.6996 96.8667 15.9126 96.8667 16.1683C96.8667 16.5391 97.0009 16.8224 97.2694 17.0185C97.5421 17.2102 97.8873 17.3061 98.3049 17.3061ZM105.167 19V9.18182H107.807V10.8949H107.909C108.088 10.2855 108.388 9.82528 108.81 9.5142C109.232 9.19886 109.718 9.04119 110.268 9.04119C110.404 9.04119 110.551 9.04972 110.709 9.06676C110.866 9.08381 111.005 9.10724 111.124 9.13707V11.5533C110.996 11.5149 110.819 11.4808 110.594 11.451C110.368 11.4212 110.161 11.4062 109.974 11.4062C109.573 11.4062 109.215 11.4936 108.9 11.6683C108.589 11.8388 108.341 12.0774 108.158 12.3842C107.979 12.6911 107.89 13.0447 107.89 13.4453V19H105.167ZM118.246 9.18182V11.2273H112.334V9.18182H118.246ZM113.676 6.82955H116.399V15.983C116.399 16.2344 116.438 16.4304 116.514 16.571C116.591 16.7074 116.697 16.8033 116.834 16.8587C116.974 16.9141 117.136 16.9418 117.32 16.9418C117.447 16.9418 117.575 16.9311 117.703 16.9098C117.831 16.8842 117.929 16.8651 117.997 16.8523L118.425 18.8786C118.289 18.9212 118.097 18.9702 117.85 19.0256C117.603 19.0852 117.303 19.1214 116.949 19.1342C116.293 19.1598 115.717 19.0724 115.223 18.8722C114.733 18.6719 114.352 18.3608 114.079 17.9389C113.806 17.517 113.672 16.9844 113.676 16.3409V6.82955Z" fill="black"/>
<path d="M5.56519 7.08701L5.95649 7.34788L6.47823 7.3044L6.82606 7.21744L7.1304 7.08701L7.47823 6.95657L7.82606 6.73918L8.08692 6.47831L8.26084 6.17397L8.39127 5.86962L8.43475 5.52179L8.2391 5.43484L8.04345 5.39136L7.69562 5.43484L7.34779 5.52179L6.99997 5.69571L6.69562 5.86962L6.34779 6.13049L6.08692 6.43484L5.82606 6.73918L5.56519 7.08701Z" fill="#019922"/>
<path d="M5.43484 7.73911L5.39136 8.43476L5.82614 8.65215L6.04353 8.43476V7.78259V7.04346H5.43484V7.73911Z" fill="#856800"/>
<path d="M19.4782 7.78267L19.1304 7.34789L18.6521 7.04354L18.0869 6.86963L17.4347 7.04354L16.8695 7.47832L16.5652 8.00006L16.4782 8.65224L16.2173 8.5218H15.9565L15.6956 8.6305L15.5217 8.82615L15.4347 9.17398V9.43485L15.5652 9.69572L15.3043 9.65224H14.9565L14.6956 9.91311L14.6086 10.1305V10.5218L14.7826 10.7827H21.0869V10.6088L21.0434 10.4783L20.9565 10.3044L20.7826 10.2175H20.5652L20.3913 10.2609L20.2173 10.3479L20.2608 10.174L20.4347 10.0435L20.7826 9.82615L20.8695 9.65224L20.913 9.43485L20.7826 9.21746L20.6521 9.1305L20.8695 8.91311L20.9999 8.73919L21.0869 8.5218L21.1304 8.21746L21.0869 8.00006L20.9999 7.78267L20.7826 7.60876L20.5652 7.47832H20.2608H19.8695L19.6521 7.60876L19.4782 7.78267Z" fill="#539F08"/>
<path d="M9.69568 9.99993L9.60872 10.9999H0.782635L0.695679 10.4347V9.82602L0.782635 9.2608L1.00003 8.73906L1.30437 8.2608L1.82611 7.8695L2.34785 7.6521H3.56524L4.73916 7.95645L5.34785 8.2608L5.73916 8.47819L6.39133 7.8695L7.2609 7.43471L8.13046 7.39124L8.78264 7.6521L9.2609 7.95645L9.60872 8.47819L9.69568 9.17384V9.99993Z" fill="#DF2929"/>
<path d="M11.826 8.30435L10.0869 10.7826H13.3478L14.7391 8.6087L15.5652 7.17391L17.2173 4.86957L18.3043 3.21739L17.3913 2.65217L16.3043 2L15.1304 3.65217L13.3478 6.17391L11.826 8.30435Z" fill="#997859"/>
<path d="M22 10.7826H0L0.173913 12.6956L0.565217 14.7391L1.13043 16.6522L1.86957 18.4348L2.65217 19.5217L3.69565 20.4348L5.34783 21.0869H16.7391C16.7391 21.0869 16.8696 21.2854 18.4348 20.2609C20 19.2363 20.4348 17.6956 20.4348 17.6956L21.0435 16.1304L21.4783 14.4782L21.7826 12.6956L22 10.7826Z" fill="#675544"/>
<circle cx="11.3044" cy="11.3044" r="1.91304" fill="#6B5F54"/>
</svg>
