<svg width="120" height="112" viewBox="0 0 120 112" fill="none" xmlns="http://www.w3.org/2000/svg">
<path d="M31.0791 26.9375L33.0804 28.4308L35.7488 28.1819L37.5278 27.6842L39.0843 26.9375L40.8633 26.1908L42.6422 24.9464L43.9764 23.4531L44.8659 21.7108L45.533 19.9686L45.7554 17.9775L44.7547 17.4797L43.7541 17.2308L41.9751 17.4797L40.1962 17.9775L38.4172 18.9731L36.8607 19.9686L35.0817 21.4619L33.7475 23.2042L32.4133 24.9464L31.0791 26.9375Z" fill="#019922"/>
<path d="M29.5252 32.9015L29.3525 37.3722L31.0792 38.7692L31.9425 37.3722V33.1809V28.4308H29.5252V32.9015Z" fill="#856800"/>
<path d="M106.498 33.6575L104.564 31.1686L101.905 29.4263L98.7626 28.4308L95.1367 29.4263L91.9942 31.9152L90.3021 34.9019L89.8187 38.6352L88.3683 37.8886H86.918L85.4676 38.5108L84.5007 39.6308L84.0172 41.6219V43.1152L84.7424 44.6086L83.2921 44.3597H81.3583L79.9079 45.853L79.4244 47.0975V49.3375L80.3913 50.8308H115.442V49.8352L115.2 49.0886L114.717 48.093L113.75 47.5952H112.541L111.574 47.8441L110.607 48.3419L110.849 47.3463L111.816 46.5997L113.75 45.3552L114.233 44.3597L114.475 43.1152L113.75 41.8708L113.024 41.373L114.233 40.1286L114.958 39.133L115.442 37.8886L115.683 36.1463L115.442 34.9019L114.958 33.6575L113.75 32.6619L112.541 31.9152H110.849H108.673L107.465 32.6619L106.498 33.6575Z" fill="#539F08"/>
<path d="M52.6619 46.8241L52.1781 52.5539H3.07375L2.58997 49.3153V45.8276L3.07375 42.5891L4.28322 39.5997L5.97647 36.8593L8.8792 34.6173L11.7819 33.3717H18.5549L25.0861 35.1155L28.4726 36.8593L30.6496 38.1049L34.278 34.6173L39.1159 32.1261L43.9537 31.877L47.5821 33.3717L50.243 35.1155L52.1781 38.1049L52.6619 42.0909V46.8241Z" fill="#CD0606"/>
<path d="M64.5701 36.4874L55.2518 50.8308H72.7236L80.1782 38.2489L84.6043 29.9449L93.4567 16.6081L99.2806 7.04585L94.3885 3.77456L88.5646 0L82.2748 9.56222L72.7236 24.1572L64.5701 36.4874Z" fill="#C69E36"/>
<path d="M120 50.8308H0L0.948617 62.1701L3.083 74.2825L6.16601 85.6218L10.1976 96.188L14.4664 102.631L20.1581 108.043L29.17 111.908H91.3044C91.3044 111.908 92.0158 113.084 100.553 107.012C109.091 100.939 111.462 91.8069 111.462 91.8069L114.783 82.5293L117.154 72.7363L118.814 62.1701L120 50.8308Z" fill="#604B02"/>
</svg>
