<svg width="120" height="112" viewBox="0 0 120 112" fill="none" xmlns="http://www.w3.org/2000/svg">
<path d="M30.3555 29.8259L32.4899 31.3554L35.3357 31.1005L37.2329 30.5906L38.893 29.8259L40.7903 29.0611L42.6875 27.7865L44.1104 26.257L45.059 24.4726L45.7705 22.6881L46.0076 20.6488L44.9404 20.139L43.8733 19.884L41.976 20.139L40.0788 20.6488L38.1816 21.6685L36.5215 22.6881L34.6242 24.2177L33.2013 26.0021L31.7784 27.7865L30.3555 29.8259Z" fill="#019922"/>
<path d="M29.6446 33.6491L29.4075 37.7278L31.779 39.0024L32.9648 37.7278V33.9041V29.5704H29.6446V33.6491Z" fill="#856800"/>
<path d="M106.245 33.9046L104.348 31.3554L101.739 29.5709L98.6559 28.5513L95.0986 29.5709L92.0156 32.1201L90.3555 35.1792L89.8812 39.0029L88.4583 38.2382H87.0354L85.6124 38.8755L84.6638 40.0226L84.1895 42.062V43.5915L84.901 45.121L83.4781 44.8661H81.5808L80.1579 46.3956L79.6836 47.6702V49.9644L80.6322 51.494H115.02V50.4743L114.782 49.7095L114.308 48.6898L113.359 48.18H112.174L111.225 48.4349L110.276 48.9448L110.514 47.9251L111.462 47.1603L113.359 45.8857L113.834 44.8661L114.071 43.5915L113.359 42.3169L112.648 41.807L113.834 40.5324L114.545 39.5128L115.02 38.2382L115.257 36.4538L115.02 35.1792L114.545 33.9046L113.359 32.8849L112.174 32.1201H110.514H108.379L107.193 32.8849L106.245 33.9046Z" fill="#539F08"/>
<path d="M52.8849 46.9046L52.4105 52.7677H4.26825L3.79395 49.4538V45.8849L4.26825 42.571L5.45402 39.512L7.1141 36.7079L9.95995 34.4136L12.8058 33.139H19.4461L25.8493 34.9234L29.1694 36.7079L31.3038 37.9825L34.8611 34.4136L39.6042 31.8644L44.3473 31.6095L47.9046 33.139L50.5133 34.9234L52.4105 37.9825L52.8849 42.0612V46.9046Z" fill="#DF2929"/>
<path d="M64.5057 36.9632L55.0195 51.4936H72.8061L80.395 38.7476L84.901 30.3353L93.9128 16.8246L99.8417 7.13772L94.8614 3.82378L88.9326 0L82.5294 9.68691L72.8061 24.4722L64.5057 36.9632Z" fill="#997859"/>
<path d="M120 51.4935H0L0.948617 62.71L3.083 74.6911L6.16601 85.9076L10.1976 96.3592L14.4664 102.732L20.1581 108.085L29.17 111.909H91.3044C91.3044 111.909 92.0158 113.073 100.553 107.066C109.091 101.059 111.462 92.0256 111.462 92.0256L114.783 82.8485L117.154 73.1616L118.814 62.71L120 51.4935Z" fill="#675544"/>
<ellipse cx="61.6604" cy="54.5529" rx="10.4348" ry="11.2164" fill="#6B5F54"/>
</svg>
