<svg width="24" height="24" viewBox="0 0 24 24" fill="none" xmlns="http://www.w3.org/2000/svg">
<rect width="24" height="24" rx="12" fill="#C5F4F7"/>
<path d="M7.71626 18.1094V14.8835H8.29155C8.48757 14.7187 8.67081 14.4844 8.84126 14.1804C9.01172 13.8764 9.15661 13.4659 9.27592 12.9489C9.39524 12.4318 9.47763 11.7685 9.52308 10.9588L9.72763 7.27273H15.1097V14.8835H16.0984V18.0966H14.837V16H8.97763V18.1094H7.71626ZM9.84268 14.8835H13.8484V8.40625H10.9208L10.7844 10.9588C10.7475 11.5753 10.6864 12.1293 10.6012 12.6207C10.5188 13.1122 10.4123 13.5469 10.2816 13.9247C10.1538 14.2997 10.0075 14.6193 9.84268 14.8835Z" fill="black"/>
</svg>
