<svg width="64" height="64" viewBox="0 0 64 64" fill="none" xmlns="http://www.w3.org/2000/svg">
<path d="M16.1897 18.7985L17.328 19.5574L18.8458 19.4309L19.8577 19.178L20.7431 18.7985L21.7549 18.4191L22.7668 17.7867L23.5257 17.0278L24.0316 16.1424L24.411 15.257L24.5375 14.2452L23.9684 13.9922L23.3992 13.8657L22.3873 13.9922L21.3755 14.2452L20.3636 14.7511L19.4782 15.257L18.4664 16.0159L17.7075 16.9013L16.9486 17.7867L16.1897 18.7985Z" fill="#019922"/>
<path d="M15.8103 20.6956L15.6838 22.7193L16.9487 23.3517L17.5811 22.7193V20.8221V18.6719H15.8103V20.6956Z" fill="#856800"/>
<path d="M56.6638 20.8223L55.652 19.5574L54.2606 18.6721L52.6164 18.1661L50.7191 18.6721L49.0749 19.9369L48.1895 21.4547L47.9365 23.3519L47.1776 22.9725H46.4188L45.6599 23.2887L45.1539 23.8578L44.901 24.8697V25.6286L45.2804 26.3875L44.5215 26.261H43.5097L42.7508 27.0199L42.4978 27.6523V28.7906L43.0037 29.5495H61.3437V29.0436L61.2172 28.6642L60.9642 28.1582L60.4583 27.9053H59.8259L59.3199 28.0318L58.814 28.2847L58.9405 27.7788L59.4464 27.3993L60.4583 26.7669L60.7112 26.261L60.8377 25.6286L60.4583 24.9962L60.0788 24.7432L60.7112 24.1108L61.0907 23.6049L61.3437 22.9725L61.4701 22.0871L61.3437 21.4547L61.0907 20.8223L60.4583 20.3163L59.8259 19.9369H58.9405H57.8022L57.1697 20.3163L56.6638 20.8223Z" fill="#539F08"/>
<path d="M28.2053 27.2725L27.9523 30.1816H2.2764L2.02344 28.5373V26.7666L2.2764 25.1223L2.90881 23.6045L3.79419 22.2132L5.31198 21.0749L6.82976 20.4425H10.3713L13.7863 21.3279L15.557 22.2132L16.6954 22.8456L18.5926 21.0749L21.1223 19.8101L23.6519 19.6836L25.5491 20.4425L26.9404 21.3279L27.9523 22.8456L28.2053 24.8694V27.2725Z" fill="#DF2929"/>
<path d="M34.403 22.3399L29.3438 29.5494H38.8299L42.8773 23.2253L45.2805 19.0514L50.0868 12.3478L53.2489 7.5415L50.5928 5.89723L47.4307 4L44.0157 8.80632L38.8299 16.1423L34.403 22.3399Z" fill="#997859"/>
<path d="M64 29.5493H0L0.505929 35.1145L1.64427 41.0592L3.28854 46.6244L5.43874 51.8102L7.71542 54.9722L10.751 57.6284L15.5573 59.5256H48.6957C48.6957 59.5256 49.0751 60.1028 53.6285 57.1224C58.1818 54.1421 59.4466 49.66 59.4466 49.66L61.2174 45.1066L62.4822 40.3003L63.3676 35.1145L64 29.5493Z" fill="#675544"/>
<circle cx="32.8855" cy="31.0673" r="5.56522" fill="#6B5F54"/>
</svg>
